<mxfile host="app.diagrams.net" agent="Mozilla/5.0 (Macintosh; Intel Mac OS X 10_15_7) AppleWebKit/537.36 (KHTML, like Gecko) Chrome/127.0.0.0 Safari/537.36" version="26.0.16">
  <diagram name="第 1 页" id="gZP2dg_081E38_DdRwA1">
    <mxGraphModel dx="658" dy="441" grid="1" gridSize="10" guides="1" tooltips="1" connect="1" arrows="1" fold="1" page="1" pageScale="1" pageWidth="827" pageHeight="1169" math="0" shadow="0">
      <root>
        <mxCell id="0" />
        <mxCell id="1" parent="0" />
        <mxCell id="XKTfgiKheDoKflJEw_Nu-4" value="" style="edgeStyle=orthogonalEdgeStyle;rounded=0;orthogonalLoop=1;jettySize=auto;html=1;" edge="1" parent="1" source="XKTfgiKheDoKflJEw_Nu-1" target="XKTfgiKheDoKflJEw_Nu-3">
          <mxGeometry relative="1" as="geometry" />
        </mxCell>
        <mxCell id="XKTfgiKheDoKflJEw_Nu-8" value="" style="edgeStyle=orthogonalEdgeStyle;rounded=0;orthogonalLoop=1;jettySize=auto;html=1;" edge="1" parent="1" source="XKTfgiKheDoKflJEw_Nu-1" target="XKTfgiKheDoKflJEw_Nu-7">
          <mxGeometry relative="1" as="geometry">
            <Array as="points">
              <mxPoint x="140" y="120" />
              <mxPoint x="140" y="120" />
            </Array>
          </mxGeometry>
        </mxCell>
        <mxCell id="XKTfgiKheDoKflJEw_Nu-1" value="目标、用户" style="text;html=1;align=center;verticalAlign=middle;whiteSpace=wrap;rounded=0;" vertex="1" parent="1">
          <mxGeometry x="70" y="40" width="100" height="30" as="geometry" />
        </mxCell>
        <mxCell id="XKTfgiKheDoKflJEw_Nu-3" value="小程序功能" style="text;html=1;align=center;verticalAlign=middle;whiteSpace=wrap;rounded=0;" vertex="1" parent="1">
          <mxGeometry x="250" y="40" width="80" height="30" as="geometry" />
        </mxCell>
        <mxCell id="XKTfgiKheDoKflJEw_Nu-7" value="后台管理功能" style="text;html=1;align=center;verticalAlign=middle;whiteSpace=wrap;rounded=0;" vertex="1" parent="1">
          <mxGeometry x="110" y="150" width="90" height="30" as="geometry" />
        </mxCell>
        <mxCell id="XKTfgiKheDoKflJEw_Nu-20" value="" style="edgeStyle=orthogonalEdgeStyle;rounded=0;orthogonalLoop=1;jettySize=auto;html=1;" edge="1" parent="1" target="XKTfgiKheDoKflJEw_Nu-19">
          <mxGeometry relative="1" as="geometry">
            <mxPoint x="350" y="145" as="sourcePoint" />
          </mxGeometry>
        </mxCell>
        <mxCell id="XKTfgiKheDoKflJEw_Nu-15" value="角色1: 领导-3" style="text;html=1;align=center;verticalAlign=middle;resizable=0;points=[];autosize=1;strokeColor=none;fillColor=none;" vertex="1" parent="1">
          <mxGeometry x="240" y="130" width="100" height="30" as="geometry" />
        </mxCell>
        <mxCell id="XKTfgiKheDoKflJEw_Nu-23" value="" style="edgeStyle=orthogonalEdgeStyle;rounded=0;orthogonalLoop=1;jettySize=auto;html=1;" edge="1" parent="1" source="XKTfgiKheDoKflJEw_Nu-16">
          <mxGeometry relative="1" as="geometry">
            <mxPoint x="410" y="217" as="targetPoint" />
          </mxGeometry>
        </mxCell>
        <mxCell id="XKTfgiKheDoKflJEw_Nu-16" value="角色2: 部门负责人-4-5" style="text;html=1;align=center;verticalAlign=middle;resizable=0;points=[];autosize=1;strokeColor=none;fillColor=none;" vertex="1" parent="1">
          <mxGeometry x="240" y="202" width="140" height="30" as="geometry" />
        </mxCell>
        <mxCell id="XKTfgiKheDoKflJEw_Nu-22" value="" style="edgeStyle=orthogonalEdgeStyle;rounded=0;orthogonalLoop=1;jettySize=auto;html=1;" edge="1" parent="1" source="XKTfgiKheDoKflJEw_Nu-17" target="XKTfgiKheDoKflJEw_Nu-21">
          <mxGeometry relative="1" as="geometry" />
        </mxCell>
        <mxCell id="XKTfgiKheDoKflJEw_Nu-17" value="角色3: 职工-10+" style="text;html=1;align=center;verticalAlign=middle;resizable=0;points=[];autosize=1;strokeColor=none;fillColor=none;" vertex="1" parent="1">
          <mxGeometry x="240" y="260" width="110" height="30" as="geometry" />
        </mxCell>
        <mxCell id="XKTfgiKheDoKflJEw_Nu-19" value="领导每个月打分，与部门负责人给部门员工打分取均值" style="text;html=1;align=center;verticalAlign=middle;resizable=0;points=[];autosize=1;strokeColor=none;fillColor=none;" vertex="1" parent="1">
          <mxGeometry x="390" y="130" width="310" height="30" as="geometry" />
        </mxCell>
        <mxCell id="XKTfgiKheDoKflJEw_Nu-21" value="给别人打分，不同角色打分项不同" style="text;html=1;align=center;verticalAlign=middle;resizable=0;points=[];autosize=1;strokeColor=none;fillColor=none;" vertex="1" parent="1">
          <mxGeometry x="400" y="260" width="200" height="30" as="geometry" />
        </mxCell>
        <mxCell id="XKTfgiKheDoKflJEw_Nu-25" value="月度: 给部门人员打分" style="text;html=1;align=center;verticalAlign=middle;whiteSpace=wrap;rounded=0;" vertex="1" parent="1">
          <mxGeometry x="414" y="202" width="146" height="30" as="geometry" />
        </mxCell>
        <mxCell id="XKTfgiKheDoKflJEw_Nu-26" value="年底: 和角色3相同" style="text;html=1;align=center;verticalAlign=middle;whiteSpace=wrap;rounded=0;" vertex="1" parent="1">
          <mxGeometry x="414" y="220" width="146" height="30" as="geometry" />
        </mxCell>
      </root>
    </mxGraphModel>
  </diagram>
</mxfile>
